PathFileType	4	(X/Y/Z)	../Python\walking\Walking19\task.trc
DataRate	CameraRate	NumFrames	NumMarkers	Units	OrigDataRate	OrigDataStartFrame	OrigNumFrames
200.000000	200.000000	7	30	mm	200.000000	285	571
Frame#	Time	RBAK			CLAV			STRN			RASI			LASI			PE01			RTH1			RTH2			RTH3			RTB2			RTB3			RD5M			RTOE			LTH3			LTB2			LTB3			LHEE			LTOE			LD5M			RHEE			LTH1			LTH2			C7			RTB1			LPSI			PE03			PE02			RPSI			T10			LTB1			
		X1	Y1	Z1	X2	Y2	Z2	X3	Y3	Z3	X4	Y4	Z4	X5	Y5	Z5	X6	Y6	Z6	X7	Y7	Z7	X8	Y8	Z8	X9	Y9	Z9	X10	Y10	Z10	X11	Y11	Z11	X12	Y12	Z12	X13	Y13	Z13	X14	Y14	Z14	X15	Y15	Z15	X16	Y16	Z16	X17	Y17	Z17	X18	Y18	Z18	X19	Y19	Z19	X20	Y20	Z20	X21	Y21	Z21	X22	Y22	Z22	X23	Y23	Z23	X24	Y24	Z24	X25	Y25	Z25	X26	Y26	Z26	X27	Y27	Z27	X28	Y28	Z28	X29	Y29	Z29	X30	Y30	Z30	

286	1.425	192.0321807861329	1254.546508789063	281.7998352050782	353.5750122070314	1262.388793945313	161.7858581542969	419.9407653808596	1080.115600585938	161.4046936035157	387.7657775878909	882.4014282226567	295.9075012207032	378.094207763672	861.527954101563	69.90228271484378	188.8085021972657	957.5746459960942	197.8846435546876	345.9686279296876	588.7843017578127	327.1237792968751	368.4825744628907	515.4472656250002	305.2429504394532	391.9626464843752	572.6021728515627	312.3480224609376	329.0736083984376	251.8541259765626	292.5521545410157	354.7516174316407	213.5786132812501	272.5651245117189	405.5632934570315	15.93178176879884	267.804901123047	439.6995239257815	31.20593261718751	211.3768920898439	412.922302246094	590.0869750976565	31.71432304382326	221.939178466797	298.2735900878907	72.61550903320315	270.6343994140626	290.9654541015626	69.1310729980469	81.57283782958987	185.6679229736329	144.3210144042969	218.2420349121095	64.51751708984378	111.9726257324219	175.9500732421876	79.14533233642581	75.3388366699219	251.487274169922	29.78833007812501	210.6211853027345	362.7374572753907	599.4389648437502	34.48066711425783	352.333465576172	541.2752685546877	50.36963272094729	228.1825408935548	1351.901245117188	172.6650848388672	374.4252014160157	289.9582824707032	280.1471252441407	183.037826538086	917.6882324218755	159.6156616210938	172.1219635009766	895.3222656250005	178.0095214843751	174.8053741455079	900.5786132812505	228.2692871093751	188.757308959961	926.6577148437505	248.3936309814454	207.5955200195314	1055.3154296875	186.0997161865235	278.3385009765626	351.3287658691407	57.7404708862305	
287	1.43	198.7904357910157	1255.585083007813	282.1818237304689	359.8091430664064	1263.012084960938	161.3454895019532	425.8737792968752	1080.654418945313	160.9118347167969	393.7906188964846	882.773315429688	296.1206054687501	383.8380737304689	862.542114257813	70.1170349121094	194.812957763672	958.3327636718755	198.4405059814454	349.4343261718751	589.0239257812502	326.8126525878907	370.911834716797	515.3488769531252	304.984344482422	395.1340942382815	572.2667236328127	311.9104003906251	329.8244628906251	251.8926391601564	292.3592529296876	355.3753662109376	213.4914855957032	272.3699951171876	405.5201110839846	15.99709415435792	267.7474365234376	439.7138671875002	31.2008399963379	211.3284149169923	422.7745056152346	592.4949340820315	32.06800460815431	236.8475189208986	296.4537963867189	72.70723724365237	285.6165771484376	290.2465820312501	69.49456024169925	98.49445343017584	180.6379394531251	144.3063659667969	238.7903594970704	63.52771377563479	111.9820938110352	196.1313781738282	77.11228179931643	75.2974548339844	251.5087890625001	29.86294746398927	210.5167999267579	372.3960266113282	601.0572509765627	34.78732681274415	362.9675598144532	542.7334594726565	50.789176940918	234.5822753906251	1352.614868164063	172.6159820556641	375.3695678710939	289.829559326172	279.882537841797	188.9310607910157	918.4838867187505	160.0808258056641	178.0332794189454	896.1625366210942	178.3266143798829	180.7937164306641	901.210327148438	228.5962066650392	194.8007812500001	927.3052368164067	248.8395843505861	213.6944885253907	1056.109985351563	186.7696838378907	292.083221435547	350.6652221679689	57.95341491699222	
288	1.435	205.5227813720704	1256.544189453125	282.5528564453126	366.0247497558595	1263.565673828125	160.9087524414063	431.7950744628909	1081.134887695313	160.4304656982422	399.8059997558596	883.0942993164067	296.3361816406251	389.6146240234377	863.507202148438	70.35212707519534	200.8087768554689	959.0148315429692	198.9571380615236	352.8338317871095	589.2219238281252	326.4916381835939	373.2945861816407	515.2314453125002	304.7298889160157	398.2336730957034	571.8943481445315	311.4888610839845	330.5670471191407	251.9242553710939	292.169158935547	355.9926147460939	213.4063568115236	272.1762695312501	405.4723815917971	16.06632995605469	267.6833801269532	439.7224121093752	31.19115257263185	211.279998779297	432.4385681152346	594.8444824218752	32.42245864868165	251.8054962158204	294.4390869140626	72.74200439453128	300.6334533691407	289.3871154785157	69.82380676269534	115.6841430664063	175.3550567626954	144.1923980712891	259.4869689941407	62.41126251220706	112.037696838379	216.5214233398439	74.9014587402344	75.27197265625003	251.5351715087892	29.93587303161623	210.4070129394532	381.9312744140626	602.6439208984377	35.0936737060547	373.4417724609376	544.1787719726565	51.21663665771487	240.962615966797	1353.2578125	172.5605621337891	376.2996826171876	289.6955871582032	279.6195678710939	194.8385772705079	919.202514648438	160.5006561279297	183.9588928222657	896.923217773438	178.6000366210938	186.7836456298829	901.7588500976567	228.880828857422	200.8432159423829	927.8751831054692	249.2492523193361	219.7833709716798	1056.827270507813	187.4161376953126	305.7915039062501	349.8464660644532	58.11588668823245	
289	1.44	212.2296600341798	1257.420043945313	282.912811279297	372.223358154297	1264.047485351563	160.4768981933594	437.7075195312502	1081.554931640625	159.9619598388672	405.8130798339846	883.3606567382817	296.5534057617189	395.4270019531252	864.4176635742192	70.60518646240237	206.7982330322267	959.6178588867192	199.4315643310548	356.1802673339845	589.3769531250002	326.1657714843751	375.6500244140626	515.0958251953127	304.4801635742189	401.2761840820315	571.4871215820315	311.081512451172	331.3076477050782	251.947967529297	291.9832153320314	356.6080322265626	213.3226776123048	271.9841308593751	405.421569824219	16.13854026794434	267.6138916015626	439.725524902344	31.1758155822754	211.2315826416017	441.9062805175784	597.1231689453127	32.77112960815431	266.8107910156251	292.2447204589845	72.72770690917972	315.6805725097657	288.396209716797	70.11753845214847	133.145736694336	169.8339385986329	143.9848327636719	280.343475341797	61.19294738769534	112.1273574829102	237.1277160644532	72.53649902343753	75.25421905517581	251.5639801025392	30.0078582763672	210.2933654785157	391.3327636718752	604.1896972656252	35.39902496337892	383.7434387207032	545.6013183593752	51.65013504028323	247.3242492675782	1353.827026367188	172.4991607666016	377.2192687988282	289.5549621582032	279.3591918945314	200.7623748779298	919.840209960938	160.874252319336	189.9007720947266	897.6005859375005	178.8295135498047	192.7764892578126	902.2229614257817	229.1226959228517	206.8852081298829	928.3668823242192	249.6212615966798	225.8637084960939	1057.464233398438	188.037094116211	319.4603271484376	348.881805419922	58.2347221374512	
290	1.445	218.9115447998048	1258.208984375	283.261444091797	378.4065856933595	1264.455688476563	160.0510406494141	443.6140136718752	1081.912475585938	159.5074462890626	411.8127136230471	883.568725585938	296.771453857422	401.2778625488284	865.2676391601567	70.8733825683594	212.7837524414064	960.1391601562505	199.8609924316407	359.487762451172	589.4880981445315	325.8401184082032	377.9966735839845	514.9427490234377	304.2354125976564	404.277282714844	571.046813964844	310.6856689453126	332.0520324707032	251.9632263183595	291.8026733398439	357.2260131835939	213.2399139404298	271.793914794922	405.3694458007815	16.21266746520997	267.5402832031251	439.7241821289065	31.1542205810547	211.1826934814454	451.1754150390627	599.3192138671877	33.11006927490236	281.860809326172	289.8859252929689	72.67321777343753	330.7532958984376	287.2837524414064	70.37482452392581	150.8836822509766	164.0903930664063	143.6907501220704	301.3709106445314	59.89863967895511	112.237533569336	257.956512451172	70.04292297363284	75.23552703857425	251.5925598144532	30.07929611206056	210.1774749755861	400.5933532714846	605.685729980469	35.70297241210939	393.8633422851565	546.9912109375002	52.08700942993167	253.6680297851564	1354.320068359375	172.4320983886719	378.1320190429689	289.4063110351564	279.1024169921876	206.7041320800782	920.3932495117192	161.2009277343751	195.8606109619142	898.191284179688	179.0149383544922	198.7733612060548	902.601928710938	229.3214263916017	212.9270782470704	928.7796020507817	249.9542694091798	231.9368743896486	1058.017700195313	188.6305389404297	333.0863342285157	347.7806091308595	58.31812286376956	
291	1.45	225.5689544677736	1258.908081054688	283.5985412597657	384.5761413574221	1264.78857421875	159.6321716308594	449.5173034667971	1082.205688476563	159.0679473876954	417.8056640625002	883.7149047851567	296.9896240234376	407.1695861816409	866.0514526367192	71.15350341796878	218.7678375244142	960.576538085938	200.2428283691407	362.7708129882814	589.554626464844	325.5195617675782	380.3516235351564	514.7727050781252	303.9956970214845	407.2524719238284	570.5749511718752	310.2980346679689	332.8049316406251	251.9699096679689	291.6287536621095	357.8503723144532	213.1575622558595	271.6062011718751	405.318054199219	16.28756141662598	267.4641418457032	439.7198181152346	31.12634849548341	211.1325225830079	460.2491149902346	601.4218750000002	33.43806457519533	296.952850341797	287.3772888183595	72.58784484863284	345.8468322753907	286.0600585937501	70.59513092041018	168.902816772461	158.1419067382813	143.3183288574219	322.5783691406251	58.55450057983401	112.3539505004883	279.0119628906251	67.44780731201175	75.2071228027344	251.6185150146486	30.15017509460451	210.0608825683595	409.7091369628909	607.1237792968752	36.00540161132814	403.7954406738284	548.338806152344	52.52399826049808	259.9948120117189	1354.73486328125	172.3596496582032	379.0414123535157	289.2485656738282	278.8504638671876	212.6653442382814	920.8583374023442	161.4802246093751	201.8398437500001	898.6923217773442	179.1563262939454	204.7750701904298	902.8952636718755	229.4768218994142	218.9689178466798	929.1130371093755	250.2469177246095	238.0040893554689	1058.485229492188	189.1944427490235	346.6658935546876	346.5518188476564	58.37501144409183	
292	1.455	232.2024688720704	1259.514526367188	283.9237365722657	390.7337646484377	1265.044921875	159.221176147461	455.4202575683596	1082.4326171875	158.6443023681641	423.7924804687502	883.7960815429692	297.2073059082032	413.1040039062502	866.763549804688	71.44211578369143	224.7530517578126	960.9279785156255	200.574676513672	366.0435791015626	589.5764160156252	325.2088317871095	382.7296447753907	514.5859985351565	303.7608337402345	410.2164306640627	570.0728759765627	309.9151611328126	333.5698852539064	251.9683532714845	291.4626770019532	358.4840087890626	213.0750732421876	271.4218139648439	405.2695007324221	16.36206245422364	267.3871154785157	439.7142028808596	31.09289169311525	211.0799102783204	469.1351318359377	603.421813964844	33.75662994384767	312.0841369628907	284.7324218750001	72.48081970214847	360.9562072753907	284.7356872558595	70.77835083007815	187.2080993652344	152.0081024169922	142.8765716552735	343.9719543457032	57.18632888793948	112.4624710083008	300.2955017089845	64.77932739257815	75.16056060791018	251.6400756835939	30.2201557159424	209.9450073242189	418.6791076660159	608.496032714844	36.30647277832033	413.5368957519534	549.6350708007815	52.95751953125003	266.3056030273439	1355.069213867188	172.2820281982422	379.9504699707032	289.0809326171876	278.6048278808595	218.6472167968751	921.2326660156255	161.7119293212891	207.8397216796876	899.1010742187505	179.2538146972657	210.7822723388673	903.1029663085942	229.5888214111329	225.0105895996095	929.367065429688	250.4979248046876	244.0665130615236	1058.864501953125	189.7267761230469	360.1952514648439	345.2035217285157	58.41434860229495	
